<!-- Generated by IcoMoon.io -->
<svg version="1.1" xmlns="http://www.w3.org/2000/svg" width="60" height="32" viewBox="0 0 60 32">
<title>Client-6</title>
<path fill="#afb1b8" d="M30.485 15.414c-0.128-0.184-0.205-0.412-0.205-0.658 0-0.026 0.001-0.051 0.003-0.077v0.003-1.061c0-0.325 0.067-0.572 0.202-0.741s0.366-0.253 0.693-0.252c0.308 0 0.526 0.072 0.655 0.216 0.141 0.183 0.209 0.408 0.193 0.634v0.249h-0.55v-0.252c0-0.010 0-0.021 0-0.033 0-0.076-0.006-0.15-0.017-0.222l0.001 0.008c-0.009-0.059-0.037-0.11-0.078-0.147v0c-0.049-0.036-0.11-0.058-0.176-0.058-0.008 0-0.016 0-0.024 0.001h0.001c-0.007-0.001-0.015-0.001-0.023-0.001-0.070 0-0.135 0.023-0.188 0.062l0.001-0.001c-0.046 0.041-0.079 0.097-0.091 0.16v0.002c-0.016 0.086-0.023 0.174-0.022 0.262v1.287c-0.001 0.015-0.002 0.032-0.002 0.050 0 0.113 0.027 0.22 0.074 0.315l-0.002-0.004c0.028 0.038 0.065 0.068 0.109 0.087l0.002 0.001c0.032 0.014 0.070 0.023 0.109 0.023 0.011 0 0.023-0.001 0.034-0.002h-0.001c0.007 0.001 0.015 0.001 0.023 0.001 0.065 0 0.125-0.022 0.173-0.060h-0.001c0.043-0.040 0.073-0.094 0.082-0.155v-0.001c0.013-0.085 0.019-0.172 0.017-0.258v-0.261h0.55v0.238c0.001 0.020 0.002 0.043 0.002 0.066 0 0.226-0.072 0.434-0.194 0.604l0.002-0.003c-0.126 0.158-0.342 0.236-0.659 0.236s-0.556-0.084-0.692-0.259zM32.777 15.425c-0.139-0.165-0.209-0.406-0.209-0.724v-1.116c0-0.315 0.070-0.553 0.209-0.715s0.371-0.242 0.697-0.242c0.324 0 0.555 0.081 0.694 0.242s0.21 0.4 0.21 0.715v1.116c0 0.315-0.071 0.556-0.212 0.723s-0.371 0.249-0.692 0.249c-0.32 0-0.557-0.084-0.697-0.248zM33.731 15.158c0.050-0.103 0.073-0.217 0.066-0.33v-1.366c0.001-0.011 0.001-0.024 0.001-0.037 0-0.104-0.024-0.203-0.068-0.291l0.002 0.004c-0.028-0.039-0.066-0.070-0.111-0.088l-0.002-0.001c-0.032-0.014-0.069-0.021-0.107-0.021-0.013 0-0.026 0.001-0.039 0.003h0.001c-0.011-0.002-0.024-0.002-0.037-0.002-0.039 0-0.076 0.008-0.11 0.022l0.002-0.001c-0.046 0.020-0.084 0.050-0.112 0.088l-0.001 0.001c-0.042 0.083-0.067 0.181-0.067 0.285 0 0.013 0 0.027 0.001 0.040v-0.002 1.372c-0.007 0.114 0.016 0.227 0.066 0.33 0.032 0.034 0.070 0.062 0.114 0.081l0.002 0.001c0.042 0.018 0.090 0.029 0.142 0.029s0.1-0.011 0.144-0.030l-0.002 0.001c0.045-0.020 0.084-0.047 0.116-0.082v0-0.006zM35.040 12.661h0.593l0.446 2.059 0.456-2.059h0.577l0.058 2.971h-0.426l-0.045-2.065-0.44 2.065h-0.342l-0.456-2.072-0.042 2.072h-0.431l0.053-2.971zM37.833 12.661h0.923c0.532 0 0.797 0.281 0.797 0.844 0 0.539-0.28 0.807-0.84 0.807h-0.314v1.32h-0.57l0.004-2.971zM38.622 13.931c0.015 0.002 0.033 0.003 0.051 0.003 0.101 0 0.193-0.037 0.263-0.098h-0.001c0.053-0.080 0.085-0.178 0.085-0.283 0-0.018-0.001-0.036-0.003-0.054v0.002c0-0.010 0.001-0.022 0.001-0.033 0-0.084-0.010-0.165-0.029-0.243l0.001 0.007c-0.009-0.031-0.023-0.059-0.042-0.082v0c-0.020-0.024-0.044-0.044-0.071-0.059l-0.001-0.001c-0.066-0.030-0.143-0.048-0.224-0.048-0.011 0-0.021 0-0.032 0.001h-0.22v0.887h0.221zM40.375 12.661h0.612l0.628 2.971h-0.531l-0.124-0.685h-0.546l-0.128 0.685h-0.539l0.628-2.971zM40.898 14.603l-0.213-1.247-0.213 1.247h0.426zM42.122 12.661h0.399l0.763 1.695v-1.695h0.473v2.971h-0.379l-0.768-1.769v1.769h-0.489l0.001-2.971zM44.865 14.5l-0.635-1.834h0.535l0.387 1.178 0.364-1.178h0.523l-0.627 1.834v1.133h-0.547v-1.133zM31.365 16.931v0.155h-0.465v1.207h-0.195v-1.207h-0.467v-0.155h1.127zM32.823 18.294h-0.15c-0.001 0-0.003 0-0.004 0-0.014 0-0.028-0.005-0.038-0.013v0c-0.011-0.008-0.020-0.018-0.025-0.031v0l-0.134-0.324h-0.645l-0.134 0.324c-0.004 0.014-0.011 0.027-0.021 0.037v0c-0.011 0.008-0.024 0.013-0.039 0.013-0.001 0-0.002 0-0.004 0h-0.15l0.57-1.362h0.198l0.577 1.357zM31.879 17.788h0.538l-0.228-0.555c-0.015-0.034-0.029-0.077-0.041-0.121l-0.002-0.007-0.021 0.072-0.021 0.057-0.226 0.554zM33.805 18.16c0.036 0.002 0.071 0.002 0.107 0 0.031-0.003 0.062-0.009 0.091-0.016 0.033-0.008 0.060-0.016 0.087-0.026l-0.004 0.002c0.025-0.010 0.050-0.021 0.076-0.033v-0.306h-0.228c-0.001 0-0.002 0-0.003 0-0.011 0-0.021-0.004-0.028-0.011v0c-0.007-0.006-0.011-0.014-0.011-0.024 0 0 0-0.001 0-0.001v0-0.105h0.442v0.522c-0.069 0.047-0.149 0.085-0.234 0.109l-0.006 0.001c-0.040 0.012-0.088 0.022-0.138 0.028h-0.005c-0.049 0.005-0.106 0.009-0.164 0.009-0.001 0-0.002 0-0.002 0v0c-0.002 0-0.004 0-0.006 0-0.101 0-0.197-0.019-0.286-0.053l0.005 0.002c-0.088-0.034-0.164-0.082-0.228-0.143v0c-0.062-0.060-0.111-0.132-0.146-0.212l-0.002-0.004c-0.033-0.081-0.052-0.175-0.052-0.273 0-0.003 0-0.007 0-0.010v0c0-0.003 0-0.006 0-0.009 0-0.099 0.019-0.194 0.053-0.281l-0.002 0.005c0.033-0.081 0.083-0.154 0.147-0.216 0.065-0.061 0.143-0.11 0.228-0.142 0.098-0.035 0.201-0.052 0.305-0.051 0.053 0 0.106 0.004 0.159 0.012 0.046 0.007 0.092 0.019 0.135 0.035 0.040 0.014 0.078 0.032 0.114 0.054s0.068 0.045 0.1 0.071l-0.055 0.084c-0.005 0.008-0.011 0.014-0.018 0.018v0c-0.007 0.004-0.016 0.007-0.026 0.007v0c-0.013 0-0.025-0.004-0.035-0.011v0c-0.023-0.012-0.041-0.022-0.059-0.034l0.003 0.002c-0.022-0.013-0.047-0.026-0.073-0.036l-0.003-0.001c-0.029-0.012-0.064-0.022-0.101-0.029l-0.004-0.001c-0.041-0.008-0.089-0.012-0.137-0.012-0.003 0-0.005 0-0.008 0v0c-0.002 0-0.004 0-0.007 0-0.076 0-0.15 0.014-0.217 0.039l0.004-0.001c-0.065 0.025-0.121 0.062-0.167 0.108v0c-0.047 0.049-0.084 0.107-0.106 0.17-0.024 0.068-0.038 0.146-0.038 0.227s0.014 0.159 0.040 0.232l-0.002-0.005c0.025 0.064 0.064 0.123 0.114 0.172 0.047 0.047 0.103 0.083 0.166 0.108 0.073 0.023 0.149 0.033 0.226 0.027zM35.621 18.138h0.622v0.155h-0.812v-1.363h0.195l-0.005 1.207zM36.891 18.293h-0.195v-1.362h0.195v1.363zM37.616 16.938c0.012 0.006 0.021 0.015 0.029 0.025v0l0.833 1.027c-0.001-0.007-0.001-0.016-0.001-0.024s0-0.017 0.001-0.026v0.001-1.015h0.17v1.368h-0.098c-0.002 0-0.004 0-0.007 0-0.013 0-0.025-0.003-0.036-0.008h0.001c-0.012-0.007-0.022-0.016-0.030-0.026v0l-0.832-1.026v1.059h-0.163v-1.362h0.101c0 0 0 0 0 0 0.011 0 0.022 0.002 0.032 0.007h-0.001zM40.083 16.931v0.15h-0.691v0.45h0.56v0.144h-0.56v0.465h0.691v0.15h-0.891v-1.359h0.891zM19.663 8.517l8.652 2.326v8.15l-8.652-2.324v-8.151zM19.109 7.822v9.242l9.761 2.625v-9.241l-9.761-2.625z"></path>
<path fill="#afb1b8" d="M24.34 23.979l-9.762-2.627v-9.241l9.762 2.626v9.242z"></path>
<path fill="#afb1b8" d="M19.27 8.412l8.54 2.297-3.632 3.439-8.54-2.298 3.633-3.438zM19.109 7.822l-4.531 4.289 9.762 2.626 4.529-4.289-9.761-2.626zM24.889 23.459l3.98-3.769-3.98-1.071v4.84z"></path>
</svg>
