<!-- Generated by IcoMoon.io -->
<svg version="1.1" xmlns="http://www.w3.org/2000/svg" width="43" height="32" viewBox="0 0 43 32">
<title>envelope</title>
<path fill="#757575" d="M38.667 0h-34.667c-2.205 0-4 1.675-4 3.733v22.405c0 2.059 1.795 3.733 4 3.733h34.667c2.205 0 4-1.675 4-3.733v-22.405c0-2.059-1.795-3.733-4-3.733zM38.667 2.488c0.185 0.001 0.36 0.037 0.522 0.102l-0.010-0.003-17.845 14.437-17.845-14.437c0.152-0.062 0.327-0.098 0.512-0.099h34.667zM38.667 27.381h-34.667c-0.736 0-1.333-0.557-1.333-1.243v-20.923l17.792 14.395c0.235 0.189 0.537 0.304 0.866 0.304 0.003 0 0.006 0 0.009 0v0c0.002 0 0.005 0 0.008 0 0.329 0 0.631-0.115 0.869-0.306l-0.003 0.002 17.792-14.395v20.923c0 0.685-0.597 1.243-1.333 1.243z"></path>
</svg>
