<!-- Generated by IcoMoon.io -->
<svg version="1.1" xmlns="http://www.w3.org/2000/svg" width="21" height="32" viewBox="0 0 21 32">
<title>smartphone</title>
<path fill="#757575" d="M18.133 0h-14.933c-1.764 0-3.2 1.34-3.2 2.987v25.89c0 1.647 1.436 2.987 3.2 2.987h14.933c1.764 0 3.2-1.34 3.2-2.987v-25.89c0-1.647-1.436-2.987-3.2-2.987zM3.2 1.99h14.933c0.589 0 1.067 0.448 1.067 0.996v20.911h-17.067v-20.911c0-0.548 0.478-0.996 1.067-0.996zM18.133 29.873h-14.933c-0.589 0-1.067-0.448-1.067-0.996v-2.987h17.067v2.987c0 0.548-0.478 0.994-1.067 0.994z"></path>
<path fill="#757575" d="M5.022 27.177c0.192 0.174 0.312 0.425 0.312 0.704s-0.12 0.53-0.312 0.703l-0.001 0.001c-0.198 0.182-0.464 0.293-0.755 0.293s-0.557-0.111-0.756-0.294l0.001 0.001c-0.192-0.174-0.312-0.425-0.312-0.704s0.12-0.53 0.312-0.703l0.001-0.001c0.198-0.182 0.464-0.293 0.755-0.293s0.557 0.111 0.756 0.294l-0.001-0.001z"></path>
</svg>
